<mxfile host="app.diagrams.net" agent="Mozilla/5.0 (Windows NT 10.0; Win64; x64) AppleWebKit/537.36 (KHTML, like Gecko) Chrome/127.0.0.0 Safari/537.36" version="24.7.7">
  <diagram name="Page-1" id="Axql8r471VTS0ITYVHbm">
    <mxGraphModel dx="845" dy="737" grid="1" gridSize="10" guides="1" tooltips="1" connect="1" arrows="1" fold="1" page="1" pageScale="1" pageWidth="850" pageHeight="1100" math="0" shadow="0">
      <root>
        <mxCell id="0" />
        <mxCell id="1" parent="0" />
        <mxCell id="pN-aEk2UVRi9vmoAu2LG-24" value="" style="rounded=0;whiteSpace=wrap;html=1;" vertex="1" parent="1">
          <mxGeometry x="20" y="570" width="580" height="400" as="geometry" />
        </mxCell>
        <mxCell id="pN-aEk2UVRi9vmoAu2LG-18" value="" style="rounded=0;whiteSpace=wrap;html=1;" vertex="1" parent="1">
          <mxGeometry x="10" y="10" width="590" height="520" as="geometry" />
        </mxCell>
        <mxCell id="pN-aEk2UVRi9vmoAu2LG-2" value="" style="rounded=0;whiteSpace=wrap;html=1;" vertex="1" parent="1">
          <mxGeometry x="880" y="60" width="580" height="80" as="geometry" />
        </mxCell>
        <UserObject label="&lt;b&gt;&lt;font style=&quot;font-size: 24px;&quot;&gt;Giphy Search Engine&lt;/font&gt;&lt;/b&gt;" treeRoot="1" id="pN-aEk2UVRi9vmoAu2LG-10">
          <mxCell style="whiteSpace=wrap;html=1;align=center;treeFolding=1;treeMoving=1;newEdgeStyle={&quot;edgeStyle&quot;:&quot;elbowEdgeStyle&quot;,&quot;startArrow&quot;:&quot;none&quot;,&quot;endArrow&quot;:&quot;none&quot;};" vertex="1" parent="1">
            <mxGeometry x="10" y="10" width="380" height="70" as="geometry" />
          </mxCell>
        </UserObject>
        <UserObject label="&lt;b&gt;&lt;font style=&quot;font-size: 18px;&quot;&gt;Home&amp;nbsp; Random&lt;/font&gt;&lt;/b&gt;" treeRoot="1" id="pN-aEk2UVRi9vmoAu2LG-11">
          <mxCell style="whiteSpace=wrap;html=1;align=center;treeFolding=1;treeMoving=1;newEdgeStyle={&quot;edgeStyle&quot;:&quot;elbowEdgeStyle&quot;,&quot;startArrow&quot;:&quot;none&quot;,&quot;endArrow&quot;:&quot;none&quot;};" vertex="1" parent="1">
            <mxGeometry x="360" y="10" width="200" height="70" as="geometry" />
          </mxCell>
        </UserObject>
        <UserObject label="Search here..." treeRoot="1" id="pN-aEk2UVRi9vmoAu2LG-12">
          <mxCell style="whiteSpace=wrap;html=1;align=center;treeFolding=1;treeMoving=1;newEdgeStyle={&quot;edgeStyle&quot;:&quot;elbowEdgeStyle&quot;,&quot;startArrow&quot;:&quot;none&quot;,&quot;endArrow&quot;:&quot;none&quot;};" vertex="1" parent="1">
            <mxGeometry x="65" y="110" width="270" height="60" as="geometry" />
          </mxCell>
        </UserObject>
        <UserObject label="Search Button" treeRoot="1" id="pN-aEk2UVRi9vmoAu2LG-13">
          <mxCell style="whiteSpace=wrap;html=1;align=center;treeFolding=1;treeMoving=1;newEdgeStyle={&quot;edgeStyle&quot;:&quot;elbowEdgeStyle&quot;,&quot;startArrow&quot;:&quot;none&quot;,&quot;endArrow&quot;:&quot;none&quot;};" vertex="1" parent="1">
            <mxGeometry x="350" y="110" width="120" height="60" as="geometry" />
          </mxCell>
        </UserObject>
        <UserObject label="gif images displayed here" treeRoot="1" id="pN-aEk2UVRi9vmoAu2LG-20">
          <mxCell style="whiteSpace=wrap;html=1;align=center;treeFolding=1;treeMoving=1;newEdgeStyle={&quot;edgeStyle&quot;:&quot;elbowEdgeStyle&quot;,&quot;startArrow&quot;:&quot;none&quot;,&quot;endArrow&quot;:&quot;none&quot;};" vertex="1" parent="1">
            <mxGeometry x="65" y="240" width="400" height="180" as="geometry" />
          </mxCell>
        </UserObject>
        <mxCell id="pN-aEk2UVRi9vmoAu2LG-21" value="" style="edgeStyle=elbowEdgeStyle;elbow=horizontal;endArrow=classic;html=1;curved=0;rounded=0;endSize=8;startSize=8;" edge="1" parent="1" source="pN-aEk2UVRi9vmoAu2LG-20">
          <mxGeometry width="50" height="50" relative="1" as="geometry">
            <mxPoint x="340" y="210" as="sourcePoint" />
            <mxPoint x="390" y="160" as="targetPoint" />
            <Array as="points">
              <mxPoint x="365" y="60" />
            </Array>
          </mxGeometry>
        </mxCell>
        <UserObject label="When Clicked it will display all the gifs that you searched&lt;div&gt;&lt;br&gt;&lt;/div&gt;" treeRoot="1" id="pN-aEk2UVRi9vmoAu2LG-22">
          <mxCell style="whiteSpace=wrap;html=1;align=center;treeFolding=1;treeMoving=1;newEdgeStyle={&quot;edgeStyle&quot;:&quot;elbowEdgeStyle&quot;,&quot;startArrow&quot;:&quot;none&quot;,&quot;endArrow&quot;:&quot;none&quot;};" vertex="1" parent="1">
            <mxGeometry x="370" y="180" width="220" height="50" as="geometry" />
          </mxCell>
        </UserObject>
        <UserObject label="&lt;font style=&quot;font-size: 24px;&quot;&gt;&lt;b&gt;Giphy Search Engine&lt;/b&gt;&lt;/font&gt;" treeRoot="1" id="pN-aEk2UVRi9vmoAu2LG-25">
          <mxCell style="whiteSpace=wrap;html=1;align=center;treeFolding=1;treeMoving=1;newEdgeStyle={&quot;edgeStyle&quot;:&quot;elbowEdgeStyle&quot;,&quot;startArrow&quot;:&quot;none&quot;,&quot;endArrow&quot;:&quot;none&quot;};" vertex="1" parent="1">
            <mxGeometry x="20" y="570" width="360" height="80" as="geometry" />
          </mxCell>
        </UserObject>
        <UserObject label="Search Bar" treeRoot="1" id="pN-aEk2UVRi9vmoAu2LG-27">
          <mxCell style="whiteSpace=wrap;html=1;align=center;treeFolding=1;treeMoving=1;newEdgeStyle={&quot;edgeStyle&quot;:&quot;elbowEdgeStyle&quot;,&quot;startArrow&quot;:&quot;none&quot;,&quot;endArrow&quot;:&quot;none&quot;};" vertex="1" parent="1">
            <mxGeometry x="90" y="700" width="290" height="60" as="geometry" />
          </mxCell>
        </UserObject>
        <mxCell id="pN-aEk2UVRi9vmoAu2LG-32" style="edgeStyle=elbowEdgeStyle;rounded=0;orthogonalLoop=1;jettySize=auto;html=1;startArrow=none;endArrow=none;exitX=0;exitY=1;exitDx=0;exitDy=0;" edge="1" parent="1" source="pN-aEk2UVRi9vmoAu2LG-28" target="pN-aEk2UVRi9vmoAu2LG-24">
          <mxGeometry relative="1" as="geometry" />
        </mxCell>
        <UserObject label="Search" treeRoot="1" id="pN-aEk2UVRi9vmoAu2LG-28">
          <mxCell style="whiteSpace=wrap;html=1;align=center;treeFolding=1;treeMoving=1;newEdgeStyle={&quot;edgeStyle&quot;:&quot;elbowEdgeStyle&quot;,&quot;startArrow&quot;:&quot;none&quot;,&quot;endArrow&quot;:&quot;none&quot;};" vertex="1" parent="1">
            <mxGeometry x="400" y="700" width="120" height="60" as="geometry" />
          </mxCell>
        </UserObject>
        <mxCell id="pN-aEk2UVRi9vmoAu2LG-29" value="" style="endArrow=classic;html=1;rounded=0;" edge="1" parent="1" source="pN-aEk2UVRi9vmoAu2LG-26">
          <mxGeometry width="50" height="50" relative="1" as="geometry">
            <mxPoint x="430" y="730" as="sourcePoint" />
            <mxPoint x="500" y="630" as="targetPoint" />
            <Array as="points">
              <mxPoint x="500" y="630" />
            </Array>
          </mxGeometry>
        </mxCell>
        <UserObject label="&lt;font style=&quot;font-size: 14px;&quot;&gt;&lt;b&gt;Home&amp;nbsp; &amp;nbsp;Random&lt;/b&gt;&lt;/font&gt;" treeRoot="1" id="pN-aEk2UVRi9vmoAu2LG-26">
          <mxCell style="whiteSpace=wrap;html=1;align=center;treeFolding=1;treeMoving=1;newEdgeStyle={&quot;edgeStyle&quot;:&quot;elbowEdgeStyle&quot;,&quot;startArrow&quot;:&quot;none&quot;,&quot;endArrow&quot;:&quot;none&quot;};" vertex="1" parent="1">
            <mxGeometry x="370" y="570" width="220" height="80" as="geometry" />
          </mxCell>
        </UserObject>
        <mxCell id="pN-aEk2UVRi9vmoAu2LG-30" value="" style="endArrow=classic;html=1;rounded=0;" edge="1" parent="1">
          <mxGeometry width="50" height="50" relative="1" as="geometry">
            <mxPoint x="430" y="730" as="sourcePoint" />
            <mxPoint x="450" y="630" as="targetPoint" />
            <Array as="points">
              <mxPoint x="450" y="630" />
            </Array>
          </mxGeometry>
        </mxCell>
        <mxCell id="pN-aEk2UVRi9vmoAu2LG-31" value="When clicked &quot;home&quot; it will tansport you to a blank page." style="text;html=1;align=center;verticalAlign=middle;whiteSpace=wrap;rounded=0;" vertex="1" parent="1">
          <mxGeometry x="530" y="720" width="60" height="30" as="geometry" />
        </mxCell>
        <mxCell id="pN-aEk2UVRi9vmoAu2LG-33" value="" style="rounded=0;whiteSpace=wrap;html=1;" vertex="1" parent="1">
          <mxGeometry x="20" y="990" width="570" height="390" as="geometry" />
        </mxCell>
        <UserObject label="&lt;b&gt;&lt;font style=&quot;font-size: 24px;&quot;&gt;Giphy Search Engine&lt;/font&gt;&lt;/b&gt;" treeRoot="1" id="pN-aEk2UVRi9vmoAu2LG-34">
          <mxCell style="whiteSpace=wrap;html=1;align=center;treeFolding=1;treeMoving=1;newEdgeStyle={&quot;edgeStyle&quot;:&quot;elbowEdgeStyle&quot;,&quot;startArrow&quot;:&quot;none&quot;,&quot;endArrow&quot;:&quot;none&quot;};" vertex="1" parent="1">
            <mxGeometry x="20" y="990" width="400" height="70" as="geometry" />
          </mxCell>
        </UserObject>
        <UserObject label="&lt;b&gt;&lt;font style=&quot;font-size: 14px;&quot;&gt;Home&amp;nbsp; Random&lt;/font&gt;&lt;/b&gt;" treeRoot="1" id="pN-aEk2UVRi9vmoAu2LG-35">
          <mxCell style="whiteSpace=wrap;html=1;align=center;treeFolding=1;treeMoving=1;newEdgeStyle={&quot;edgeStyle&quot;:&quot;elbowEdgeStyle&quot;,&quot;startArrow&quot;:&quot;none&quot;,&quot;endArrow&quot;:&quot;none&quot;};" vertex="1" parent="1">
            <mxGeometry x="420" y="990" width="170" height="70" as="geometry" />
          </mxCell>
        </UserObject>
        <UserObject label="Search Bar" treeRoot="1" id="pN-aEk2UVRi9vmoAu2LG-36">
          <mxCell style="whiteSpace=wrap;html=1;align=center;treeFolding=1;treeMoving=1;newEdgeStyle={&quot;edgeStyle&quot;:&quot;elbowEdgeStyle&quot;,&quot;startArrow&quot;:&quot;none&quot;,&quot;endArrow&quot;:&quot;none&quot;};" vertex="1" parent="1">
            <mxGeometry x="70" y="1100" width="300" height="60" as="geometry" />
          </mxCell>
        </UserObject>
        <UserObject label="Search Button" treeRoot="1" id="pN-aEk2UVRi9vmoAu2LG-37">
          <mxCell style="whiteSpace=wrap;html=1;align=center;treeFolding=1;treeMoving=1;newEdgeStyle={&quot;edgeStyle&quot;:&quot;elbowEdgeStyle&quot;,&quot;startArrow&quot;:&quot;none&quot;,&quot;endArrow&quot;:&quot;none&quot;};" vertex="1" parent="1">
            <mxGeometry x="380" y="1100" width="120" height="60" as="geometry" />
          </mxCell>
        </UserObject>
        <UserObject label="Random Gifs produced here. When you click the random button." treeRoot="1" id="pN-aEk2UVRi9vmoAu2LG-38">
          <mxCell style="whiteSpace=wrap;html=1;align=center;treeFolding=1;treeMoving=1;newEdgeStyle={&quot;edgeStyle&quot;:&quot;elbowEdgeStyle&quot;,&quot;startArrow&quot;:&quot;none&quot;,&quot;endArrow&quot;:&quot;none&quot;};" vertex="1" parent="1">
            <mxGeometry x="90" y="1190" width="390" height="130" as="geometry" />
          </mxCell>
        </UserObject>
        <mxCell id="pN-aEk2UVRi9vmoAu2LG-39" value="" style="endArrow=classic;html=1;rounded=0;entryX=0.588;entryY=0.571;entryDx=0;entryDy=0;entryPerimeter=0;" edge="1" parent="1" source="pN-aEk2UVRi9vmoAu2LG-38" target="pN-aEk2UVRi9vmoAu2LG-35">
          <mxGeometry width="50" height="50" relative="1" as="geometry">
            <mxPoint x="390" y="1180" as="sourcePoint" />
            <mxPoint x="440" y="1130" as="targetPoint" />
          </mxGeometry>
        </mxCell>
      </root>
    </mxGraphModel>
  </diagram>
</mxfile>
